<svg width="871" height="747" viewBox="0 0 871 747" fill="none" xmlns="http://www.w3.org/2000/svg">
<path d="M436.955 640.944C347.219 640.944 255.499 662.75 167.745 672.117C142.486 674.838 117.364 666.073 100.03 648.484C82.6954 630.901 75.2059 606.586 79.8418 582.948C93.6003 512.834 99.726 441.013 98.1559 368.917C99.726 296.821 93.6003 224.999 79.8418 154.886C75.2059 131.247 82.6954 106.932 100.03 89.3493C117.364 71.7664 142.486 62.995 167.745 65.7164C196.826 68.8216 257.493 85.2587 326.36 74.5623C361.733 69.068 399.462 66.1174 436.955 66.3409H435.162C472.655 66.1174 510.384 69.068 545.757 74.5623C614.624 85.2587 675.291 68.8216 704.372 65.7164C729.632 62.995 754.753 71.7664 772.088 89.3493C789.422 106.932 796.911 131.247 792.281 154.886C778.517 224.999 772.391 296.821 773.961 368.917C772.391 441.013 778.517 512.834 792.281 582.948C796.911 606.586 789.422 630.901 772.088 648.484C754.753 666.073 729.632 674.838 704.372 672.117C616.618 662.75 524.899 640.944 435.162 640.944M78.4951 133.785C71.5041 129.568 62.1866 124.532 55.5051 118.723C19.6848 87.5847 4.83183 45.9449 22.3609 25.7896C39.8899 5.6286 83.1997 14.5432 119.02 45.6757C125.702 51.4851 134.606 58.8929 139.758 65.2294C99.9666 80.3831 83.6238 100.372 78.4951 133.785ZM81.0508 610.838C74.4839 615.69 65.6764 621.574 59.5621 627.979C26.8019 662.309 15.8914 705.152 35.2197 723.594C54.5481 742.03 96.8379 729.128 129.604 694.793C135.718 688.388 143.895 680.184 148.434 673.395C107.405 662.011 89.2739 643.632 81.0508 610.838ZM792.276 610.838C798.848 615.69 807.65 621.574 813.764 627.979C846.53 662.309 857.441 705.152 838.112 723.594C818.784 742.03 776.494 729.128 743.728 694.793C737.614 688.388 729.437 680.184 724.898 673.395C765.927 662.011 784.058 643.632 792.276 610.838ZM792.51 133.785C799.496 129.568 808.813 124.532 815.5 118.723C851.315 87.5847 866.168 45.9449 848.639 25.7896C831.116 5.6286 787.806 14.5432 751.986 45.6757C745.298 51.4851 736.393 58.8929 731.248 65.2294C771.039 80.3831 787.376 100.372 792.51 133.785Z" stroke="black" stroke-width="30" stroke-miterlimit="1.5" stroke-linecap="round" stroke-linejoin="round"/>
</svg>
