<svg width="1024" height="1024" viewBox="0 0 1024 1024" fill="none" xmlns="http://www.w3.org/2000/svg">
<g clip-path="url(#clip0_41_2)">
<path d="M512.955 778.944C423.219 778.944 331.499 800.75 243.745 810.117C218.486 812.838 193.364 804.073 176.03 786.484C158.695 768.901 151.206 744.586 155.842 720.948C169.6 650.834 175.726 579.013 174.156 506.917C175.726 434.821 169.6 362.999 155.842 292.886C151.206 269.247 158.695 244.932 176.03 227.349C193.364 209.766 218.486 200.995 243.745 203.716C272.826 206.822 333.493 223.259 402.36 212.562C437.733 207.068 475.462 204.117 512.955 204.341H511.162C548.655 204.117 586.384 207.068 621.757 212.562C690.624 223.259 751.291 206.822 780.372 203.716C805.632 200.995 830.753 209.766 848.088 227.349C865.422 244.932 872.911 269.247 868.281 292.886C854.517 362.999 848.391 434.821 849.961 506.917C848.391 579.013 854.517 650.834 868.281 720.948C872.911 744.586 865.422 768.901 848.088 786.484C830.753 804.073 805.632 812.838 780.372 810.117C692.618 800.75 600.899 778.944 511.162 778.944M154.495 271.785C147.504 267.568 138.187 262.532 131.505 256.723C95.6848 225.585 80.8318 183.945 98.3609 163.79C115.89 143.629 159.2 152.543 195.02 183.676C201.702 189.485 210.606 196.893 215.758 203.229C175.967 218.383 159.624 238.372 154.495 271.785ZM157.051 748.838C150.484 753.69 141.676 759.574 135.562 765.979C102.802 800.309 91.8914 843.152 111.22 861.594C130.548 880.03 172.838 867.128 205.604 832.793C211.718 826.388 219.895 818.184 224.434 811.395C183.405 800.011 165.274 781.632 157.051 748.838ZM868.276 748.838C874.848 753.69 883.65 759.574 889.764 765.979C922.53 800.309 933.441 843.152 914.112 861.594C894.784 880.03 852.494 867.128 819.728 832.793C813.614 826.388 805.437 818.184 800.898 811.395C841.927 800.011 860.058 781.632 868.276 748.838ZM868.51 271.785C875.496 267.568 884.813 262.532 891.5 256.723C927.315 225.585 942.168 183.945 924.639 163.79C907.116 143.629 863.806 152.543 827.986 183.676C821.298 189.485 812.393 196.893 807.248 203.229C847.039 218.383 863.376 238.372 868.51 271.785Z" stroke="black" stroke-width="45" stroke-miterlimit="1.5" stroke-linecap="round" stroke-linejoin="round"/>
<path d="M125 147.5L86 190L125 252.5L153.5 307.5L173 606L143 767.5L104 842L125 877.5L276 792.5L526.5 783.5L763 815.5L914 877.5V792.5L852 691L868 296.5L928 165L859 158L763 213L201.5 201L125 147.5Z" fill="black" stroke="black"/>
</g>
<defs>
<clipPath id="clip0_41_2">
<rect width="1024" height="1024" fill="white"/>
</clipPath>
</defs>
</svg>
